<svg width="136" height="291" viewBox="0 0 136 291" fill="none" xmlns="http://www.w3.org/2000/svg">
<path d="M79.004 192.381L79.4339 190.427L79.004 192.381ZM3.27735 138.497L5.24289 138.127L3.27735 138.497ZM33.6083 290.691C34.5423 291.281 35.7775 291.002 36.3672 290.068L45.9775 274.848C46.5672 273.914 46.2882 272.679 45.3542 272.089C44.4202 271.499 43.185 271.778 42.5953 272.712L34.0528 286.241L20.5241 277.699C19.5901 277.109 18.3549 277.388 17.7652 278.322C17.1755 279.256 17.4545 280.491 18.3885 281.081L33.6083 290.691ZM32.6829 0.834892C30.2126 30.6568 29.4664 76.0644 35.2834 115.378C38.1904 135.024 42.7543 153.279 49.6418 167.329C56.516 181.353 65.8893 191.542 78.5742 194.334L79.4339 190.427C68.4772 188.016 59.8731 179.114 53.2335 165.569C46.607 152.05 42.1207 134.258 39.2404 114.792C33.4829 75.8814 34.2143 30.8013 36.6693 1.16511L32.6829 0.834892ZM78.5742 194.334C93.7727 197.678 106.094 195.443 115.407 189.699C124.695 183.97 130.789 174.875 133.79 164.851C139.743 144.971 133.681 120.59 115.033 110.716L113.161 114.251C129.607 122.959 135.55 145.029 129.959 163.704C127.188 172.957 121.623 181.166 113.307 186.295C105.015 191.409 93.7874 193.586 79.4339 190.427L78.5742 194.334ZM115.033 110.716C97.3113 101.333 66.0398 90.5056 40.6603 90.742C27.9803 90.8601 16.3694 93.7452 8.78225 101.409C1.10957 109.159 -1.9895 121.312 1.31181 138.866L5.24289 138.127C2.07971 121.307 5.21423 110.699 11.6249 104.223C18.1211 97.6613 28.4432 94.856 40.6976 94.7419C65.187 94.5137 95.7899 105.054 113.161 114.251L115.033 110.716ZM1.31181 138.866C11.6614 193.899 26.5663 262.179 32.7253 289.441L36.6269 288.559C30.4727 261.318 15.5797 193.092 5.24289 138.127L1.31181 138.866Z" fill="#F83F1A"/>
</svg>
