<svg width="261" height="237" viewBox="0 0 261 237" fill="none" xmlns="http://www.w3.org/2000/svg">
<path d="M242 224L240.858 222.358L242 224ZM1.00015 202.268C0.043516 202.82 -0.284339 204.043 0.267863 205L9.26652 220.589C9.81873 221.546 11.0419 221.874 11.9985 221.321C12.9551 220.769 13.283 219.546 12.7308 218.589L4.73199 204.732L18.5891 196.733C19.5457 196.181 19.8736 194.958 19.3214 194.001C18.7692 193.045 17.546 192.717 16.5894 193.269L1.00015 202.268ZM13.2454 3.85218C49.2554 18.5229 104.473 40.5298 153.094 58.8713C177.403 68.0412 200.079 76.3013 217.889 82.2713C226.792 85.2556 234.5 87.6749 240.598 89.3504C246.607 91.0015 251.288 92 254 92V88C251.912 88 247.743 87.1651 241.658 85.4933C235.662 83.8459 228.033 81.4527 219.161 78.4787C201.421 72.5321 178.797 64.2922 154.506 55.1287C105.927 36.8035 50.7446 14.8104 14.7546 0.147815L13.2454 3.85218ZM254 92C255.771 92 257.421 91.5971 258.648 90.5065C259.909 89.3851 260.392 87.8357 260.425 86.2609C260.488 83.2753 258.964 79.427 256.654 75.277C251.942 66.8154 243.125 55.6755 232.705 44.6277C222.266 33.5602 210.112 22.4717 198.645 14.1325C192.913 9.96359 187.314 6.45363 182.159 3.97829C177.037 1.51938 172.188 0 168 0V4C171.312 4 175.525 5.23062 180.427 7.58421C185.295 9.92137 190.681 13.2864 196.292 17.3675C207.513 25.5283 219.484 36.4398 229.795 47.3723C240.125 58.3245 248.683 69.1846 253.159 77.223C255.442 81.323 256.465 84.3497 256.426 86.1766C256.409 87.008 256.179 87.3493 255.99 87.5169C255.767 87.7154 255.229 88 254 88V92ZM168 0C166.806 0 165.66 0.236018 164.67 0.833603C163.657 1.44513 162.958 2.34427 162.536 3.39793C161.742 5.3797 161.91 7.93844 162.499 10.6506C163.698 16.1793 167.024 23.927 171.585 33.0795C180.728 51.4275 195.296 76.3024 209.243 101.955C223.243 127.705 236.658 154.307 243.72 176.421C247.253 187.487 249.143 197.272 248.799 205.186C248.456 213.062 245.925 218.833 240.858 222.358L243.142 225.642C249.575 221.167 252.419 214 252.795 205.36C253.169 196.759 251.122 186.451 247.53 175.204C240.342 152.693 226.757 125.795 212.757 100.045C198.704 74.1976 184.272 49.5725 175.165 31.2955C170.601 22.1355 167.49 14.7895 166.408 9.80255C165.855 7.25687 165.922 5.70233 166.249 4.88528C166.388 4.53952 166.555 4.36786 166.737 4.25844C166.941 4.13508 167.319 4 168 4V0ZM240.858 222.358C232.168 228.403 217.127 231.436 197.998 232.114C178.977 232.788 156.309 231.126 132.703 228.116C85.4994 222.097 34.7909 210.719 2.5178 202.068L1.4822 205.932C33.8758 214.615 84.7672 226.036 132.197 232.084C155.908 235.107 178.815 236.796 198.14 236.111C217.357 235.431 233.432 232.397 243.142 225.642L240.858 222.358Z" fill="#F83F1A"/>
</svg>
