<svg width="76" height="57" viewBox="0 0 76 57" fill="none" xmlns="http://www.w3.org/2000/svg">
<path d="M4.37294 0.910736C3.21908 0.15248 1.66899 0.473187 0.910736 1.62706C0.15248 2.78092 0.473187 4.33101 1.62706 5.08926L4.37294 0.910736ZM73.5065 51.4482C74.8586 51.1684 75.7279 49.8456 75.4482 48.4935L70.8895 26.4601C70.6098 25.108 69.2869 24.2388 67.9349 24.5185C66.5828 24.7982 65.7135 26.1211 65.9932 27.4732L70.0453 47.0584L50.4601 51.1105C49.1081 51.3902 48.2388 52.7131 48.5185 54.0651C48.7982 55.4172 50.1211 56.2865 51.4732 56.0068L73.5065 51.4482ZM1.62706 5.08926L71.6271 51.0893L74.3729 46.9107L4.37294 0.910736L1.62706 5.08926Z" fill="#11275D"/>
</svg>
