<svg width="131" height="558" viewBox="0 0 131 558" fill="none" xmlns="http://www.w3.org/2000/svg">
<path d="M85.5533 472.292C84.8464 520.069 29.2997 544.389 -3.7066 555.001L3.71583 53.334C13.6408 63.3908 60.7408 78.8061 68.8544 98.7996C78.9964 123.792 62.8023 158.916 106.299 224.619C147.44 286.763 116.341 345.18 97.3595 384.806C78.3776 424.433 86.3155 420.78 85.5533 472.292Z" fill="#F83F1A" stroke="#F83F1A" stroke-width="3.4335" stroke-linecap="round"/>
<path d="M75.0272 336.793C83.9909 369.737 29.1657 443.839 -2.5872 479.353L4.42287 5.55614C17.6868 22.6158 50.9791 62.7582 61.8737 91.7594C78.0168 134.732 42.8156 151.296 41.9615 209.027C41.2201 259.134 64.7051 298.857 75.0272 336.793Z" fill="#11275D" stroke="#11275D" stroke-width="3.4335" stroke-linecap="round"/>
</svg>
