<svg width="1680" height="1268" viewBox="0 0 1680 1268" fill="none" xmlns="http://www.w3.org/2000/svg">
<path d="M920.449 172.19C880.443 -41.1977 343.725 -12.926 0 30.569V1260.31C433.024 1266.11 1322.57 1274.24 1416.58 1260.31C1534.08 1242.9 1723.09 1115.77 1671.17 885.996C1614.76 636.379 1038.97 598.178 835.585 624.848C632.698 651.452 966.145 415.929 920.449 172.19Z" fill="#7FA4D6"/>
<circle cx="1455" cy="678" r="11" fill="#11275D"/>
<circle cx="1503" cy="678" r="11" fill="#11275D"/>
<circle cx="1551" cy="678" r="11" fill="#11275D"/>
<circle cx="1455" cy="735" r="11" fill="#11275D"/>
<circle cx="1503" cy="735" r="11" fill="#11275D"/>
<circle cx="1551" cy="735" r="11" fill="#11275D"/>
<circle cx="1455" cy="790" r="11" fill="#11275D"/>
<circle cx="1503" cy="790" r="11" fill="#11275D"/>
<circle cx="1551" cy="790" r="11" fill="#11275D"/>
<circle cx="1455" cy="845" r="11" fill="#11275D"/>
<circle cx="1503" cy="845" r="11" fill="#11275D"/>
<circle cx="1551" cy="845" r="11" fill="#11275D"/>
</svg>
