<svg width="105" height="692" viewBox="0 0 105 692" fill="none" xmlns="http://www.w3.org/2000/svg">
<path d="M45.9593 586.153C46.6891 645.438 104.034 675.615 138.109 688.784L130.446 66.2856C120.2 78.7648 71.575 97.8929 63.1988 122.702C52.7284 153.713 69.4468 197.298 24.5416 278.826C-17.9308 355.938 14.1746 428.425 33.7709 477.596C53.3673 526.767 45.1725 522.234 45.9593 586.153Z" fill="#F83F1A" stroke="#F83F1A" stroke-width="3.70563" stroke-linecap="round"/>
<path d="M56.8262 418.018C47.5723 458.897 104.172 550.848 136.953 594.915L129.716 7.00003C116.023 28.1687 81.6527 77.9798 70.4055 113.966C53.7398 167.289 90.0804 187.842 90.9622 259.479C91.7276 321.655 67.4823 370.944 56.8262 418.018Z" fill="#11275D" stroke="#11275D" stroke-width="3.70563" stroke-linecap="round"/>
</svg>
