<svg width="659" height="202" viewBox="0 0 659 202" fill="none" xmlns="http://www.w3.org/2000/svg">
<path d="M74.7576 108.327C15.4675 108.327 -15.4127 165.296 -29 199.206H593.545C581.193 188.807 562.665 139.951 537.961 131.27C507.081 120.419 463.294 136.599 382.325 90.6939C305.742 47.2756 232.864 78.4863 183.456 97.4759C134.048 116.466 138.681 108.327 74.7576 108.327Z" fill="#F83F1A" stroke="#F83F1A" stroke-width="3.70563" stroke-linecap="round"/>
<path d="M242.746 121.263C201.984 111.506 109.344 166.97 64.876 199.206H652.836C631.837 185.253 582.453 150.273 546.608 138.584C493.494 121.263 472.495 157.348 400.853 157.348C338.672 157.348 289.685 132.498 242.746 121.263Z" fill="#11275D" stroke="#11275D" stroke-width="3.70563" stroke-linecap="round"/>
<circle cx="22" cy="11" r="11" fill="#11275D"/>
<circle cx="70" cy="11" r="11" fill="#11275D"/>
<circle cx="118" cy="11" r="11" fill="#11275D"/>
<circle cx="22" cy="68" r="11" fill="#11275D"/>
<circle cx="70" cy="68" r="11" fill="#11275D"/>
<circle cx="118" cy="68" r="11" fill="#11275D"/>
<circle cx="22" cy="123" r="11" fill="#11275D"/>
<circle cx="70" cy="123" r="11" fill="#11275D"/>
<circle cx="118" cy="123" r="11" fill="#11275D"/>
<circle cx="22" cy="178" r="11" fill="#11275D"/>
<circle cx="70" cy="178" r="11" fill="#11275D"/>
<circle cx="118" cy="178" r="11" fill="#11275D"/>
</svg>
