<svg width="374" height="676" viewBox="0 0 374 676" fill="none" xmlns="http://www.w3.org/2000/svg">
<path d="M215 292.515C210.2 185.006 67.6667 53.3763 -3 1V664.663L373 675V664.663C355.667 637.096 304.6 568.731 239 515.804C157 449.644 221 426.902 215 292.515Z" fill="#F83F1A" stroke="#F83F1A" stroke-linecap="round"/>
<circle cx="190" cy="438" r="11" fill="#11275D"/>
<circle cx="238" cy="438" r="11" fill="#11275D"/>
<circle cx="286" cy="438" r="11" fill="#11275D"/>
<circle cx="190" cy="495" r="11" fill="#11275D"/>
<circle cx="238" cy="495" r="11" fill="#11275D"/>
<circle cx="286" cy="495" r="11" fill="#11275D"/>
<circle cx="190" cy="550" r="11" fill="#11275D"/>
<circle cx="238" cy="550" r="11" fill="#11275D"/>
<circle cx="286" cy="550" r="11" fill="#11275D"/>
<circle cx="190" cy="605" r="11" fill="#11275D"/>
<circle cx="238" cy="605" r="11" fill="#11275D"/>
<circle cx="286" cy="605" r="11" fill="#11275D"/>
</svg>
