<svg width="30" height="30" viewBox="0 0 30 30" fill="none" xmlns="http://www.w3.org/2000/svg">
<mask id="mask0_20_380" style="mask-type:alpha" maskUnits="userSpaceOnUse" x="0" y="0" width="30" height="30">
<rect width="30" height="30" fill="#D9D9D9"/>
</mask>
<g mask="url(#mask0_20_380)">
<path d="M9.13462 27.7573C8.50321 27.7573 7.96875 27.5386 7.53125 27.1013C7.09375 26.6641 6.875 26.1299 6.875 25.4988V3.77867C6.875 3.14756 7.09375 2.61336 7.53125 2.17607C7.96875 1.73879 8.50321 1.52014 9.13462 1.52014H20.8653C21.4967 1.52014 22.0312 1.73879 22.4687 2.17607C22.9062 2.61336 23.1249 3.14756 23.1249 3.77867V25.4988C23.1249 26.1299 22.9062 26.6641 22.4687 27.1014C22.0312 27.5387 21.4967 27.7573 20.8653 27.7573L9.13462 27.7573ZM8.74997 24.3215V25.4988C8.74997 25.5949 8.79003 25.683 8.87016 25.7631C8.9503 25.8432 9.03846 25.8833 9.13462 25.8833H20.8653C20.9615 25.8833 21.0496 25.8432 21.1298 25.7631C21.2099 25.683 21.25 25.5949 21.25 25.4988V24.3215H8.74997ZM8.74997 22.4475H21.25V6.83003H8.74997V22.4475ZM8.74997 4.956H21.25V3.7787C21.25 3.68258 21.2099 3.59447 21.1298 3.51436C21.0496 3.43427 20.9615 3.39423 20.8653 3.39423H9.13462C9.03846 3.39423 8.9503 3.43427 8.87016 3.51436C8.79003 3.59447 8.74997 3.68258 8.74997 3.7787V4.956Z" fill="#F83F1A"/>
</g>
</svg>
