<svg width="27" height="27" viewBox="0 0 27 27" fill="none" xmlns="http://www.w3.org/2000/svg">
<mask id="mask0_20_361" style="mask-type:alpha" maskUnits="userSpaceOnUse" x="0" y="0" width="27" height="27">
<rect width="27" height="27" fill="#D9D9D9"/>
</mask>
<g mask="url(#mask0_20_361)">
<path d="M4.84616 21.5456C4.27789 21.5456 3.79688 21.3488 3.40313 20.9552C3.00938 20.5617 2.8125 20.0809 2.8125 19.5129V6.71151C2.8125 6.14351 3.00938 5.66273 3.40313 5.26917C3.79688 4.87561 4.27789 4.67883 4.84616 4.67883H22.1538C22.7221 4.67883 23.2031 4.87561 23.5968 5.26917C23.9906 5.66273 24.1874 6.14351 24.1874 6.71151V19.5129C24.1874 20.0809 23.9906 20.5617 23.5968 20.9552C23.2031 21.3488 22.7221 21.5456 22.1538 21.5456H4.84616ZM13.5 13.7392L4.49997 7.98725V19.5129C4.49997 19.6138 4.53243 19.6967 4.59734 19.7616C4.66225 19.8265 4.74519 19.8589 4.84616 19.8589H22.1538C22.2548 19.8589 22.3377 19.8265 22.4026 19.7616C22.4675 19.6967 22.5 19.6138 22.5 19.5129V7.98725L13.5 13.7392ZM13.5 11.9877L22.3269 6.36548H4.67305L13.5 11.9877ZM4.49997 7.98725V6.36548V19.5129C4.49997 19.6138 4.53243 19.6967 4.59734 19.7616C4.66225 19.8265 4.74519 19.8589 4.84616 19.8589H4.49997V7.98725Z" fill="#F83F1A"/>
</g>
</svg>
