<svg width="1920" height="11958" viewBox="0 0 1920 11958" fill="none" xmlns="http://www.w3.org/2000/svg">
<path d="M88.7583 1065.15C87.8812 1124.44 18.9556 1154.62 -22.0006 1167.78L-12.7904 545.286C-0.474892 557.765 57.9695 576.893 68.0374 601.702C80.6222 632.713 60.5276 676.298 114.501 757.826C165.551 834.938 126.962 907.425 103.408 956.596C79.8543 1005.77 89.704 1001.23 88.7583 1065.15Z" fill="#F83F1A" stroke="#F83F1A" stroke-width="3.70563" stroke-linecap="round"/>
<path d="M75.6974 897.018C86.8201 937.897 18.7897 1029.85 -20.6111 1073.92L-11.9126 486C4.54609 507.169 45.8571 556.98 59.3757 592.966C79.407 646.289 35.7274 666.842 34.6675 738.479C33.7476 800.655 62.8892 849.944 75.6974 897.018Z" fill="#11275D" stroke="#11275D" stroke-width="3.70563" stroke-linecap="round"/>
<path d="M1825.91 2477.15C1826.78 2536.44 1895.29 2566.62 1936 2579.78L1926.84 1957.29C1914.6 1969.76 1856.51 1988.89 1846.5 2013.7C1833.99 2044.71 1853.97 2088.3 1800.32 2169.83C1749.58 2246.94 1787.93 2319.43 1811.35 2368.6C1834.76 2417.77 1824.97 2413.23 1825.91 2477.15Z" fill="#F83F1A" stroke="#F83F1A" stroke-width="3.70563" stroke-linecap="round"/>
<path d="M1838.89 2309.02C1827.83 2349.9 1895.46 2441.85 1934.62 2485.92L1925.97 1898C1909.61 1919.17 1868.55 1968.98 1855.11 2004.97C1835.2 2058.29 1878.62 2078.84 1879.67 2150.48C1880.59 2212.65 1851.62 2261.94 1838.89 2309.02Z" fill="#11275D" stroke="#11275D" stroke-width="3.70563" stroke-linecap="round"/>
<path d="M132.778 3149C190.098 2947.4 58.1426 2833 -15 2801V4517C5.89788 4449 54.8586 4298.6 83.5186 4241C119.344 4169 195.471 4005 159.647 3861C123.822 3717 70.0842 3665 20.8249 3525C-28.4344 3385 61.128 3401 132.778 3149Z" fill="#7FA4D6" stroke="#7FA4D6"/>
<circle cx="62" cy="3650" r="11" fill="#11275D"/>
<circle cx="110" cy="3650" r="11" fill="#11275D"/>
<circle cx="158" cy="3650" r="11" fill="#11275D"/>
<circle cx="62" cy="3707" r="11" fill="#11275D"/>
<circle cx="110" cy="3707" r="11" fill="#11275D"/>
<circle cx="158" cy="3707" r="11" fill="#11275D"/>
<circle cx="62" cy="3762" r="11" fill="#11275D"/>
<circle cx="110" cy="3762" r="11" fill="#11275D"/>
<circle cx="158" cy="3762" r="11" fill="#11275D"/>
<circle cx="62" cy="3817" r="11" fill="#11275D"/>
<circle cx="110" cy="3817" r="11" fill="#11275D"/>
<circle cx="158" cy="3817" r="11" fill="#11275D"/>
<path d="M1788.97 5005C1771.46 4883.4 1875.03 4650.33 1929 4549V5893C1914.41 5818.33 1885.24 5644.2 1885.24 5545C1885.24 5421 1929 5365 1885.24 5245C1841.48 5125 1810.85 5157 1788.97 5005Z" fill="#F83F1A" stroke="#F83F1A"/>
<path d="M1869.75 5471C1873.75 5379 1809.75 5315 1781.75 5215C1759.95 5137.11 1872.87 4883.54 1936.68 4757L1941.75 5695C1916.42 5651 1866.55 5544.6 1869.75 5471Z" fill="#11275D"/>
<path d="M1941.75 4747C1940.1 4750.24 1938.41 4753.57 1936.68 4757M1936.68 4757C1872.87 4883.54 1759.95 5137.11 1781.75 5215C1809.75 5315 1873.75 5379 1869.75 5471C1866.55 5544.6 1916.42 5651 1941.75 5695L1936.68 4757Z" stroke="#F83F1A"/>
<path d="M134.673 7189C186.884 7019.4 45.9791 6726.33 -31 6601V8777C-9.24502 8703.67 48.322 8517 104.55 8357C174.836 8157 134.673 7805 64.3872 7569C-5.89811 7333 69.4076 7401 134.673 7189Z" fill="#11275D"/>
<path d="M165 7901C165 7811.4 29 7618.33 -39 7533V9053C-6.61905 8971.67 54.2571 8788.2 38.7143 8705C19.2857 8601 -14.7143 8501 14.4286 8401C43.5714 8301 165 8013 165 7901Z" fill="#7FA4D6"/>
<path d="M1814.03 10053.1C1728.66 9909.08 1865.77 9630.36 1945 9509V10913.3C1945 10929.3 1927.54 10926.9 1857.69 10789.2C1770.38 10617.2 1867.39 10577.2 1906.19 10377.2C1945 10177.1 1920.75 10233.1 1814.03 10053.1Z" fill="#F83F1A"/>
<circle cx="1798" cy="10068" r="11" fill="#11275D"/>
<circle cx="1846" cy="10068" r="11" fill="#11275D"/>
<circle cx="1894" cy="10068" r="11" fill="#11275D"/>
<circle cx="1798" cy="10125" r="11" fill="#11275D"/>
<circle cx="1846" cy="10125" r="11" fill="#11275D"/>
<circle cx="1894" cy="10125" r="11" fill="#11275D"/>
<circle cx="1798" cy="10180" r="11" fill="#11275D"/>
<circle cx="1846" cy="10180" r="11" fill="#11275D"/>
<circle cx="1894" cy="10180" r="11" fill="#11275D"/>
<circle cx="1798" cy="10235" r="11" fill="#11275D"/>
<circle cx="1846" cy="10235" r="11" fill="#11275D"/>
<circle cx="1894" cy="10235" r="11" fill="#11275D"/>
</svg>
